<?xml version="1.0" standalone="no"?><!DOCTYPE svg PUBLIC "-//W3C//DTD SVG 1.1//EN" "http://www.w3.org/Graphics/SVG/1.1/DTD/svg11.dtd"><svg t="1531116221978" class="icon" style="" viewBox="0 0 1024 1024" version="1.1" xmlns="http://www.w3.org/2000/svg" p-id="3689" xmlns:xlink="http://www.w3.org/1999/xlink" width="200" height="200"><defs><style type="text/css"></style></defs><path d="M983.66464 604.223488c0 12.888064-10.457088 23.334912-23.355392 23.334912s-23.355392-10.446848-23.355392-23.334912 10.457088-23.334912 23.355392-23.334912 23.355392 10.446848 23.355392 23.334912z m-99.31776-23.334912c-1.245184 0-1.65888 0.124928-3.70688 0.313344v0.43008H585.076736c-11.108352-4.096-19.093504-12.032-19.093504-23.033856 0-11.030528 7.456768-20.62336 19.744768-23.056384V534.528h36.864v0.630784c2.048 0.006144 0.93184 0.032768 1.150976 0.032768 12.898304 0 23.607296-10.446848 23.607296-23.334912s-10.835968-23.334912-23.734272-23.334912c-0.217088 0 1.024 0.026624-1.024 0.032768V489.472h-93.759488c-11.175936-2.048-20.1728-11.288576-20.1728-22.126592 0-11.01824 9.486336-20.594688 19.726336-22.228992V444.416h233.472v0.313344c14.336-0.016384 23.32672-10.299392 23.32672-23.175168 0-12.877824-8.99072-22.747136-23.32672-22.761472V399.36h0.632832-152.55552c-11.862016-2.048-20.87936-12.351488-20.87936-23.844864 0-10.592256 7.657472-19.163136 18.141184-23.259136H954.368v0.387072c0 0.253952 2.367488 0.405504 3.823616 0.405504 12.898304 0 23.138304-10.446848 23.138304-23.334912s-10.129408-23.334912-23.02976-23.334912c-1.456128 0-3.93216 0.151552-3.93216 0.405504V307.2H720.00512c-12.388352-2.048-21.956608-11.761664-21.956608-23.599104 0-11.624448 9.22624-21.456896 21.284864-23.504896H796.672v0.063488c0 0.059392 1.189888 0.104448 1.886208 0.104448 12.898304 0 23.267328-10.446848 23.267328-23.334912s-10.326016-23.334912-23.22432-23.334912c-0.69632 0-1.929216 0.045056-1.929216 0.104448V212.992H282.624v0.811008c-2.048-0.12288-2.01728-0.208896-3.024896-0.208896-12.898304 0-23.384064 10.446848-23.384064 23.334912s10.500096 23.334912 23.400448 23.334912c1.007616 0 0.960512-0.086016 3.008512-0.208896v0.04096h355.211264c12.060672 2.048 21.286912 11.880448 21.286912 23.504896 0 11.839488-9.568256 21.551104-21.956608 23.599104H354.304v-0.612352c-2.048-0.12288-2.08896-0.208896-3.096576-0.208896-12.898304 0-23.420928 10.446848-23.420928 23.334912s10.555392 23.334912 23.453696 23.334912c1.007616 0 1.015808-0.086016 3.063808-0.208896V352.256h146.427904c10.53696 4.096 18.35008 12.140544 18.35008 22.767616 0 11.030528-9.129984 20.647936-19.369984 23.08096V399.36h-32.567296-0.002048H466.944v-0.96256c-12.288 0.24576-22.89664 10.57792-22.89664 23.312384 0 12.732416 10.60864 23.064576 22.89664 23.310336V444.416h8.192v0.698368c10.24 1.634304 19.767296 11.2128 19.767296 22.228992 0 10.838016-8.951808 20.078592-20.129792 22.126592H131.072v-0.690176c-10.24 1.603584-20.062208 11.309056-20.062208 23.076864S120.832 533.32992 131.072 534.933504V534.528h319.766528c12.136448 2.048 21.440512 12.064768 21.440512 23.738368 0 10.99776-8.261632 19.269632-19.365888 23.365632H288.768v-0.626688c-12.288 1.155072-21.16608 11.106304-21.16608 23.218176S276.48 626.286592 288.768 627.441664V626.688h350.208v1.298432c12.288 2.435072 19.462144 11.655168 19.462144 22.685696S651.264 670.922752 638.976 673.355776V673.792H389.12v0.454656c-12.288 2.205696-18.573312 11.59168-18.573312 22.841344S376.832 717.723648 389.12 719.929344V720.896h145.010688c9.363456 2.048 15.998976 11.78624 15.998976 21.63712 0 9.596928-6.295552 17.27488-15.276032 21.37088H528.384v-0.329728c-10.24 1.048576-21.395456 11.098112-21.395456 23.359488S518.144 809.244672 528.384 810.293248V811.008h94.208v-0.718848c12.288-1.148928 21.188608-11.163648 21.188608-23.355392S634.88 764.725248 622.592 763.57632v0.32768h-41.61536c-8.98048-4.096-15.276032-11.773952-15.276032-21.37088 0-9.85088 6.637568-19.58912 15.998976-21.63712H800.768v-0.505856c0 0.006144 0.401408 0.032768 0.618496 0.032768 12.898304 0 23.341056-10.446848 23.341056-23.334912s-10.436608-23.334912-23.334912-23.334912c-0.217088 0-0.62464 0.026624-0.62464 0.032768V673.792h-49.803264c-12.300288-2.048-21.776384-11.75552-21.776384-23.535616 0-11.853824 9.592832-21.520384 22.00576-23.568384H880.64v0.557056c2.048 0.186368 2.461696 0.313344 3.70688 0.313344 12.898304 0 23.355392-10.446848 23.355392-23.334912s-10.457088-23.334912-23.355392-23.334912z m-820.656128-92.3648c-12.898304 0-23.355392 10.446848-23.355392 23.334912s10.457088 23.334912 23.355392 23.334912 23.355392-10.446848 23.355392-23.334912-10.457088-23.334912-23.355392-23.334912z m207.17568-135.4752c12.898304 0 23.355392-10.446848 23.355392-23.334912s-10.457088-23.334912-23.355392-23.334912-23.355392 10.446848-23.355392 23.334912c0.002048 12.888064 10.457088 23.334912 23.355392 23.334912z" fill="#DCF3FF" p-id="3690"></path></svg>