<?xml version="1.0" standalone="no"?><!DOCTYPE svg PUBLIC "-//W3C//DTD SVG 1.1//EN" "http://www.w3.org/Graphics/SVG/1.1/DTD/svg11.dtd"><svg t="1531116215240" class="icon" style="" viewBox="0 0 1024 1024" version="1.1" xmlns="http://www.w3.org/2000/svg" p-id="3562" xmlns:xlink="http://www.w3.org/1999/xlink" width="200" height="200"><defs><style type="text/css"></style></defs><path d="M943.382528 357.156864l-32.446464 435.941376-89.757696 25.982976H235.29472l-80.70144-57.790464 7.718912-361.777152 63.420416-69.298176z" fill="#FFFFFF" p-id="3563"></path><path d="M246.646784 301.492224c-175.413248-0.178176-199.532544 86.390784-199.081984 151.9616 0.591872 86.192128 0.028672 336.635904 0.028672 336.635904s43.020288 142.419968 182.949888 143.433728c139.927552 1.01376 564.324352 0.32768 564.324352 0.32768s179.412992-20.269056 180.365312-172.5952c0.595968-95.545344-110.399488 64.290816-110.399488 64.290816H242.253824l-87.658496-81.420288 8.568832-382.605312 117.620736-58.847232" fill="#D1E9FF" p-id="3564"></path><path d="M653.312 555.008h-86.016v-86.016h-36.864v86.016h-86.016v36.864h86.016v86.016h36.864v-86.016h86.016z" fill="#33D1E2" p-id="3565"></path><path d="M975.245312 399.36C969.762816 346.112 925.696 305.004544 872.448 302.78656V301.056h-135.168v-20.48h0.206848c-2.49856-106.496-89.280512-191.332352-195.975168-191.332352S348.033024 174.08 345.536512 280.576H346.112v20.48h-114.688v1.626112s-0.673792-0.299008-0.854016-0.299008c-56.045568 0-102.44096 41.680896-107.882496 96.976896H122.88v344.064h-0.565248c-0.100352 2.048-0.169984 4.237312-0.169984 6.170624 0 59.707392 48.615424 108.517376 108.320768 108.517376H858.112v-0.530432c4.096 0.262144 6.322176 0.038912 9.459712 0.038912 58.189824 0 105.771008-46.614528 108.14464-103.958528H976.896V399.36h-1.650688zM411.648 286.230528c0-72.372224 58.683392-131.024896 131.072-131.024896 72.388608 0 131.072 58.650624 131.072 131.024896V301.056H411.648v-14.825472z m440.342528 506.867712c-0.03072 0-0.022528-0.008192-0.022528-0.008192V792.576H247.808v0.462848c0 0.002048-0.07168 0.059392-0.278528 0.059392-32.817152 0-59.113472-26.599424-59.113472-59.414528v-0.024576c0-0.028672-1.366016-0.475136-1.366016-0.475136H188.416V425.984h-1.314816c-0.002048 0 1.314816 1.226752 1.314816 1.021952v-0.024576C188.416 394.170368 213.649408 366.592 246.460416 366.592h0.018432c0.028672 0 1.329152 0.98304 1.329152 0.98304V366.592h604.16v1.03424c0-0.002048-0.67584-1.03424-0.47104-1.03424h0.018432c32.817152 0 59.420672 26.550272 59.420672 59.369472 0 0.03072-0.008192 0.022528-0.008192 0.022528H911.36v307.2h-0.485376c0.002048 0 0.485376 0.272384 0.485376 0.477184v0.006144c0 32.823296-26.546176 59.430912-59.369472 59.430912z" fill="#1890FF" p-id="3566"></path></svg>