<?xml version="1.0" standalone="no"?><!DOCTYPE svg PUBLIC "-//W3C//DTD SVG 1.1//EN" "http://www.w3.org/Graphics/SVG/1.1/DTD/svg11.dtd"><svg t="1531116209990" class="icon" style="" viewBox="0 0 1024 1024" version="1.1" xmlns="http://www.w3.org/2000/svg" p-id="3435" xmlns:xlink="http://www.w3.org/1999/xlink" width="200" height="200"><defs><style type="text/css"></style></defs><path d="M178.638848 157.220864h473.767936v312.813568s-47.13472 160.919552-155.897856 184.563712-284.071936 8.81664-317.87008-170.559488 0-326.817792 0-326.817792" fill="#FFFFFF" p-id="3436"></path><path d="M178.890752 125.065216H57.20064v432.719872c25.22112 129.18784 233.289728 275.46624 411.097088 129.18784 18.968576-15.60576-287.514624 11.231232-289.406976-174.770176s0-387.137536 0-387.137536z" fill="#D1E9FF" p-id="3437"></path><path d="M888.832 717.6192V555.008h-75.776v163.84h0.602112c0 83.968-67.995648 151.871488-151.871488 151.871488-83.877888 0-151.871488-67.903488-151.871488-151.871488H509.952v-17.207296C616.448 663.851008 690.751488 563.2 690.751488 444.416H690.176V81.92h-139.264v75.776h65.536v290.816h-1.421312c-2.512896 108.544-89.849856 192.876544-197.228544 192.876544-108.959744 0-197.287936-88.428544-197.287936-196.972544H221.184V157.696h65.536V81.92H145.408v366.592h-0.505856c2.527232 149.504 123.691008 268.652544 272.859136 268.652544 5.525504 0 10.27072 0.243712 16.41472-0.079872V720.896h0.13312c2.51904 124.928 103.39328 222.808064 227.477504 222.808064 124.084224 0 224.958464-97.880064 227.477504-222.808064H888.832v-3.2768z" fill="#1890FF" p-id="3438"></path><path d="M853.305344 356.542464c-62.681088 0-113.491968 50.812928-113.491968 113.491968 0 62.681088 50.812928 113.491968 113.491968 113.491968s113.491968-50.812928 113.491968-113.491968c0.002048-62.67904-50.81088-113.491968-113.491968-113.491968z m0 189.15328c-41.787392 0-75.661312-33.87392-75.661312-75.661312 0-41.785344 33.87392-75.661312 75.661312-75.661312 41.785344 0 75.661312 33.875968 75.661312 75.661312 0.002048 41.787392-33.87392 75.661312-75.661312 75.661312z" fill="#33D1E2" p-id="3439"></path></svg>