<?xml version="1.0" standalone="no"?><!DOCTYPE svg PUBLIC "-//W3C//DTD SVG 1.1//EN" "http://www.w3.org/Graphics/SVG/1.1/DTD/svg11.dtd"><svg t="1531116197424" class="icon" style="" viewBox="0 0 1024 1024" version="1.1" xmlns="http://www.w3.org/2000/svg" p-id="3179" xmlns:xlink="http://www.w3.org/1999/xlink" width="200" height="200"><defs><style type="text/css"></style></defs><path d="M555.214848 147.595264l-251.94496 260.184064 107.094016 120.160256 245.684224-260.165632z" fill="#FFFFFF" p-id="3180"></path><path d="M500.98176 181.295104l-52.174848-42.696704-304.805888 301.056 167.161856 165.15072 99.201024-97.826816-104.349696-101.945344z" fill="#D1E9FF" p-id="3181"></path><path d="M633.767936 59.287552l132.401152 132.399104-26.2144 26.2144-132.399104-132.4032z" fill="#33D1E2" p-id="3182"></path><path d="M888.832 897.024H683.593728C731.889664 851.968 763.904 790.49728 765.952 720.86528V542.72h0.165888c-11.216896-86.016-69.292032-160.270336-149.981184-191.41632l92.270592-92.475392-21.604352-21.706752-24.997888-25.049088-87.138304-87.16288-21.00224-21.014528-298.246144 298.242048 13.674496 13.6704 32.927744 32.925696 79.2064 79.2064 28.932096 28.932096 152.895488-153.219072C633.91744 417.265664 687.6672 475.136 699.641856 542.72H698.368v167.936h1.92512c0 102.4-80.265216 184.32-180.586496 186.368h-13.293568C406.130688 894.976 327.68 812.736512 327.68 711.614464V669.696h-65.536v43.008h-2.2016c0.366592 71.68 32.126976 139.264 82.5856 184.32H135.168v67.584h369.219584c2.879488 0 5.767168 0.16384 8.671232 0.16384s5.791744-0.16384 8.671232-0.16384H888.832v-67.584zM553.66656 197.085184l61.538304 61.538304-205.04576 205.04576-61.538304-61.538304 205.04576-205.04576z" fill="#1890FF" p-id="3183"></path><path d="M166.856704 650.3936h243.505152v37.070848H166.856704z" fill="#33D1E2" p-id="3184"></path></svg>