<?xml version="1.0" standalone="no"?><!DOCTYPE svg PUBLIC "-//W3C//DTD SVG 1.1//EN" "http://www.w3.org/Graphics/SVG/1.1/DTD/svg11.dtd"><svg t="1531116203672" class="icon" style="" viewBox="0 0 1024 1024" version="1.1" xmlns="http://www.w3.org/2000/svg" p-id="3307" xmlns:xlink="http://www.w3.org/1999/xlink" width="200" height="200"><defs><style type="text/css"></style></defs><path d="M222.24896 168.216576l60.217344-97.44384 516.091904 12.941312 63.71328 73.248768v355.6864L509.206528 823.742464l-44.72832 25.530368-133.650432 33.409024-98.125824-33.409024-7.20896-107.773952z" fill="#FFFFFF" p-id="3308"></path><path d="M320.397312 51.601408c-78.299136-1.296384-172.959744 15.869952-203.583488 117.489664v652.87168s21.92384 151.734272 159.737856 151.734272h171.5712v-65.425408l-189.218816-37.279744-33.409024-79.652864V142.641152l94.902272-91.039744" fill="#D1E9FF" p-id="3309"></path><path d="M232.701952 627.73248h304.510976v37.584896H232.701952zM653.312 278.528h-90.112V190.464h-36.864v88.064h-88.064v38.912h88.064v88.064h36.864v-88.064h90.112zM192.083968 512.647168h345.12896v37.584896H192.083968z" fill="#33D1E2" p-id="3310"></path><path d="M907.194368 520.257536L556.46208 870.987776l-47.24736-47.24736 350.73024-350.73024z" fill="#1890FF" p-id="3311"></path><path d="M895.6416 159.744C894.814208 100.352 847.872 52.844544 788.48 50.42176V51.2H299.008v-0.77824C239.616 52.850688 192.712704 100.352 192.11264 159.744H192.512v643.072h-0.391168c-0.012288 0-0.036864 1.314816-0.036864 1.994752 0 61.476864 49.580032 111.29856 111.020032 111.29856V915.456h161.792v-65.536h-143.36v-0.708608c-2.048 0.002048-0.600064 0.06144-0.813056 0.06144-30.511104 0-56.530944-22.331392-60.626944-51.539968V168.66304C264.192 142.60224 284.381184 122.88 310.441984 118.784h466.880512C803.383296 122.88 823.296 142.60224 827.392 168.66304V407.552h67.584V159.744h0.6656z" fill="#1890FF" p-id="3312"></path></svg>